<?xml version="1.0" encoding="UTF-8" standalone="no"?>
<!-- Created with Inkscape (http://www.inkscape.org/) -->

<svg
   xmlns:dc="http://purl.org/dc/elements/1.1/"
   xmlns:cc="http://creativecommons.org/ns#"
   xmlns:rdf="http://www.w3.org/1999/02/22-rdf-syntax-ns#"
   xmlns:svg="http://www.w3.org/2000/svg"
   xmlns="http://www.w3.org/2000/svg"
   xmlns:sodipodi="http://sodipodi.sourceforge.net/DTD/sodipodi-0.dtd"
   xmlns:inkscape="http://www.inkscape.org/namespaces/inkscape"
   width="113.89832mm"
   height="162.20607mm"
   viewBox="0 0 403.57671 574.74591"
   id="svg2"
   version="1.1"
   inkscape:version="0.91 r13725"
   sodipodi:docname="Toaster Empty.svg">
  <defs
     id="defs4">
    <inkscape:perspective
       sodipodi:type="inkscape:persp3d"
       inkscape:vp_x="-295.95737 : 170.87109 : 0"
       inkscape:vp_y="0 : 1275.1059 : 0"
       inkscape:vp_z="532.25957 : 307.30021 : 0"
       inkscape:persp3d-origin="490.61694 : -46.577843 : 1"
       id="perspective3740" />
    <inkscape:perspective
       sodipodi:type="inkscape:persp3d"
       inkscape:vp_x="-508.76624 : 293.73633 : 0"
       inkscape:vp_y="0 : 2191.9737 : 0"
       inkscape:vp_z="914.9821 : 528.26515 : 0"
       inkscape:persp3d-origin="206.03884 : -296.48536 : 1"
       id="perspective3352" />
    <inkscape:perspective
       sodipodi:type="inkscape:persp3d"
       inkscape:vp_x="-135.01866 : 77.953063 : 0"
       inkscape:vp_y="0 : 581.7158 : 0"
       inkscape:vp_z="242.82204 : 140.19337 : 0"
       inkscape:persp3d-origin="705.29511 : 435.47992 : 1"
       id="perspective3740-0" />
    <inkscape:perspective
       sodipodi:type="inkscape:persp3d"
       inkscape:vp_x="-508.76624 : 293.73633 : 0"
       inkscape:vp_y="0 : 2191.9737 : 0"
       inkscape:vp_z="914.9821 : 528.26515 : 0"
       inkscape:persp3d-origin="206.03884 : -296.48536 : 1"
       id="perspective3352-0" />
  </defs>
  <sodipodi:namedview
     id="base"
     pagecolor="#ffffff"
     bordercolor="#666666"
     borderopacity="1.0"
     inkscape:pageopacity="0.0"
     inkscape:pageshadow="2"
     inkscape:zoom="1"
     inkscape:cx="286.10577"
     inkscape:cy="295.93899"
     inkscape:document-units="px"
     inkscape:current-layer="layer1"
     showgrid="true"
     objecttolerance="20"
     inkscape:window-width="1600"
     inkscape:window-height="837"
     inkscape:window-x="-8"
     inkscape:window-y="-8"
     inkscape:window-maximized="1"
     fit-margin-top="0"
     fit-margin-left="0"
     fit-margin-right="0"
     fit-margin-bottom="0" />
  <metadata
     id="metadata7">
    <rdf:RDF>
      <cc:Work
         rdf:about="">
        <dc:format>image/svg+xml</dc:format>
        <dc:type
           rdf:resource="http://purl.org/dc/dcmitype/StillImage" />
        <dc:title></dc:title>
      </cc:Work>
    </rdf:RDF>
  </metadata>
  <g
     inkscape:label="Layer 1"
     inkscape:groupmode="layer"
     id="layer1"
     style="display:inline;opacity:1"
     transform="translate(-168.76571,-215.10832)">
    <g
       sodipodi:type="inkscape:box3d"
       id="g3642"
       style="fill:#ffeeaa;fill-opacity:1"
       inkscape:perspectiveID="#perspective3352"
       inkscape:corner0="0.40498816 : 0.25107159 : 0 : 1"
       inkscape:corner7="0.0083652694 : 0.14477237 : 0.22053802 : 1">
      <path
         sodipodi:type="inkscape:box3dside"
         id="path3654"
         style="fill:#e9e9ff;fill-rule:evenodd;stroke:none;stroke-width:1px;stroke-linecap:butt;stroke-linejoin:round;stroke-opacity:1"
         inkscape:box3dsidetype="11"
         d="m 370.54859,300.53499 201.78835,116.50256 0,233.00509 -201.78835,-116.50256 z"
         points="572.33694,417.03755 572.33694,650.04264 370.54859,533.54008 370.54859,300.53499 " />
      <path
         sodipodi:type="inkscape:box3dside"
         id="path3644"
         style="fill:#353564;fill-rule:evenodd;stroke:none;stroke-width:1px;stroke-linecap:butt;stroke-linejoin:round;stroke-opacity:1"
         inkscape:box3dsidetype="6"
         d="m 168.76025,417.03754 0,233.00509 201.78834,-116.50255 0,-233.00509 z"
         points="168.76025,650.04263 370.54859,533.54008 370.54859,300.53499 168.76025,417.03754 " />
      <path
         sodipodi:type="inkscape:box3dside"
         id="path3652"
         style="fill:#afafde;fill-rule:evenodd;stroke:none;stroke-width:1px;stroke-linecap:butt;stroke-linejoin:round;stroke-opacity:1"
         inkscape:box3dsidetype="13"
         d="M 168.76025,650.04263 370.54859,766.54519 572.33694,650.04264 370.54859,533.54008 Z"
         points="370.54859,766.54519 572.33694,650.04264 370.54859,533.54008 168.76025,650.04263 " />
      <path
         sodipodi:type="inkscape:box3dside"
         id="path3646"
         style="fill:#ff5555;fill-rule:evenodd;stroke:none;stroke-width:1px;stroke-linecap:butt;stroke-linejoin:round;stroke-opacity:1"
         inkscape:box3dsidetype="5"
         d="M 168.76025,417.03754 370.54859,533.5401 572.33694,417.03755 370.54859,300.53499 Z"
         points="370.54859,533.5401 572.33694,417.03755 370.54859,300.53499 168.76025,417.03754 " />
      <path
         sodipodi:type="inkscape:box3dside"
         id="path3650"
         style="fill:#aa0000;fill-opacity:1;fill-rule:evenodd;stroke:none;stroke-width:1px;stroke-linecap:butt;stroke-linejoin:round;stroke-opacity:1"
         inkscape:box3dsidetype="14"
         d="m 370.54859,533.5401 0,233.00509 201.78835,-116.50255 0,-233.00509 z"
         points="370.54859,766.54519 572.33694,650.04264 572.33694,417.03755 370.54859,533.5401 " />
      <path
         sodipodi:type="inkscape:box3dside"
         id="path3648"
         style="fill:#ff2a2a;fill-rule:evenodd;stroke:none;stroke-width:1px;stroke-linecap:butt;stroke-linejoin:round;stroke-opacity:1"
         inkscape:box3dsidetype="3"
         d="m 168.76025,417.03754 201.78834,116.50256 0,233.00509 -201.78834,-116.50256 z"
         points="370.54859,533.5401 370.54859,766.54519 168.76025,650.04263 168.76025,417.03754 " />
    </g>
    <g
       sodipodi:type="inkscape:box3d"
       id="g3726"
       style="fill:#800000;fill-opacity:1"
       inkscape:perspectiveID="#perspective3740"
       inkscape:corner0="1.5242247 : 0.020725309 : -0.011127166 : 1"
       inkscape:corner7="1.2968277 : -0.040152452 : 0.052058915 : 1">
      <path
         sodipodi:type="inkscape:box3dside"
         id="path3738"
         style="fill:#e9e9ff;fill-rule:evenodd;stroke:none;stroke-width:1px;stroke-linecap:butt;stroke-linejoin:round;stroke-opacity:1"
         inkscape:box3dsidetype="11"
         d="m 235.98597,533.56146 67.29982,38.85558 0,77.62559 -67.29982,-38.85558 z"
         points="303.28579,572.41704 303.28579,650.04263 235.98597,611.18705 235.98597,533.56146 " />
      <path
         sodipodi:type="inkscape:box3dside"
         id="path3728"
         style="fill:#353564;fill-rule:evenodd;stroke:none;stroke-width:1px;stroke-linecap:butt;stroke-linejoin:round;stroke-opacity:1"
         inkscape:box3dsidetype="6"
         d="m 202.35458,552.97856 0,77.62559 33.63139,-19.4171 0,-77.62559 z"
         points="202.35458,630.60415 235.98597,611.18705 235.98597,533.56146 202.35458,552.97856 " />
      <path
         sodipodi:type="inkscape:box3dside"
         id="path3736"
         style="fill:#afafde;fill-rule:evenodd;stroke:none;stroke-width:1px;stroke-linecap:butt;stroke-linejoin:round;stroke-opacity:1"
         inkscape:box3dsidetype="13"
         d="m 202.35458,630.60415 67.29982,38.85557 33.63139,-19.41709 -67.29982,-38.85558 z"
         points="269.6544,669.45972 303.28579,650.04263 235.98597,611.18705 202.35458,630.60415 " />
      <path
         sodipodi:type="inkscape:box3dside"
         id="path3730"
         style="fill:#e6e6e6"
         inkscape:box3dsidetype="5"
         d="m 202.35458,552.97856 67.29982,38.85557 33.63139,-19.41709 -67.29982,-38.85558 z"
         points="269.6544,591.83413 303.28579,572.41704 235.98597,533.56146 202.35458,552.97856 " />
      <path
         sodipodi:type="inkscape:box3dside"
         id="path3734"
         style="fill:#808080"
         inkscape:box3dsidetype="14"
         d="m 269.6544,591.83413 0,77.62559 33.63139,-19.41709 0,-77.62559 z"
         points="269.6544,669.45972 303.28579,650.04263 303.28579,572.41704 269.6544,591.83413 " />
      <path
         sodipodi:type="inkscape:box3dside"
         id="path3732"
         style="fill:#999999"
         inkscape:box3dsidetype="3"
         d="m 202.35458,552.97856 67.29982,38.85557 0,77.62559 -67.29982,-38.85557 z"
         points="269.6544,591.83413 269.6544,669.45972 202.35458,630.60415 202.35458,552.97856 " />
    </g>
    <path
       style="fill:none;fill-rule:evenodd;stroke:none;stroke-width:1px;stroke-linecap:butt;stroke-linejoin:miter;stroke-opacity:1"
       d="m 269.65987,397.62898 0,38.83418"
       id="path4944"
       inkscape:connector-curvature="0" />
    <path
       style="fill:#aa0000;fill-opacity:1;fill-rule:evenodd;stroke:none;stroke-width:1px;stroke-linecap:butt;stroke-linejoin:miter;stroke-opacity:1"
       d="m 269.65987,397.62898 0,38.83418 100.89419,58.25129 33.63139,-19.41709 z"
       id="path4954"
       inkscape:connector-curvature="0" />
    <path
       style="fill:#550000;fill-rule:evenodd;stroke:none;stroke-width:1px;stroke-linecap:butt;stroke-linejoin:miter;stroke-opacity:1"
       d="m 269.65987,436.46316 -33.63137,-19.41708 33.63137,-19.4171 z"
       id="path4960"
       inkscape:connector-curvature="0" />
    <path
       style="fill:#aa0000;fill-opacity:1;fill-rule:evenodd;stroke:none;stroke-width:1px;stroke-linecap:butt;stroke-linejoin:miter;stroke-opacity:1"
       d="m 370.55406,339.37772 0,38.83418 100.89416,58.25126 33.63139,-19.41708 z"
       id="path4966"
       inkscape:connector-curvature="0" />
    <path
       style="fill:#550000;fill-opacity:1;fill-rule:evenodd;stroke:none;stroke-width:1px;stroke-linecap:butt;stroke-linejoin:miter;stroke-opacity:1"
       d="m 336.92266,358.7948 33.6314,19.4171 0,0 0,0 0,-38.83418 -33.6314,19.41708"
       id="path4968"
       inkscape:connector-curvature="0" />
    <path
       style="fill:#550000;fill-opacity:1;fill-rule:evenodd;stroke:none;stroke-width:1px;stroke-linecap:butt;stroke-linejoin:miter;stroke-opacity:1"
       d="m 370.55406,766.55373 0,15.53368 0,0 26.90512,-15.53368 0,-15.53368 z"
       id="path4982"
       inkscape:connector-curvature="0" />
    <path
       style="fill:#aa0000;fill-opacity:1;fill-rule:evenodd;stroke:none;stroke-width:1px;stroke-linecap:butt;stroke-linejoin:miter;stroke-opacity:1"
       d="m 343.64896,751.02005 0,15.53368 26.9051,15.53368 0,-15.53368 z"
       id="path4988"
       inkscape:connector-curvature="0" />
    <path
       style="fill:#aa0000;fill-opacity:1;fill-rule:evenodd;stroke:none;stroke-width:1px;stroke-linecap:butt;stroke-linejoin:miter;stroke-opacity:1"
       d="m 182.21828,657.81802 0,15.53367 26.90511,15.53367 0,-15.53367 z"
       id="path4990"
       inkscape:connector-curvature="0" />
    <path
       style="fill:#550000;fill-opacity:1;fill-rule:evenodd;stroke:none;stroke-width:1px;stroke-linecap:butt;stroke-linejoin:miter;stroke-opacity:1"
       d="m 209.12339,688.88536 13.45256,-7.76682 -13.45256,-7.76685 z"
       id="path4992"
       inkscape:connector-curvature="0" />
    <path
       style="fill:#550000;fill-opacity:1;fill-rule:evenodd;stroke:none;stroke-width:1px;stroke-linecap:butt;stroke-linejoin:miter;stroke-opacity:1"
       d="m 558.88983,657.81802 0,15.53367 -26.9051,15.53367 0,-15.53367 z"
       id="path4994"
       inkscape:connector-curvature="0" />
    <path
       style="fill:#550000;fill-opacity:1;fill-rule:evenodd;stroke:none;stroke-width:1px;stroke-linecap:butt;stroke-linejoin:miter;stroke-opacity:1"
       d="m 531.98473,673.35169 0,15.53367 0,0 -13.45255,-7.76682 z"
       id="path5000"
       inkscape:connector-curvature="0" />
    <path
       style="fill:#000000;fill-opacity:0.31372549;fill-rule:evenodd;stroke:none;stroke-width:1px;stroke-linecap:butt;stroke-linejoin:miter;stroke-opacity:1"
       d="m 182.21828,665.58484 -13.45257,7.76685 201.78835,116.50256 201.78834,-116.50256 -13.45257,-7.76685 0,7.76685 -26.9051,15.53367 -13.45255,-7.76682 -121.073,69.90151 0,15.53368 -26.90512,15.53368 -26.9051,-15.53368 0,-15.53368 -121.07301,-69.90151 -13.45256,7.76682 -26.90511,-15.53367 0,-7.76685"
       id="path5008"
       inkscape:connector-curvature="0" />
    <path
       style="fill:#666666;fill-opacity:1;fill-rule:evenodd;stroke:none;stroke-width:1px;stroke-linecap:butt;stroke-linejoin:miter;stroke-opacity:1"
       d="m 202.39711,584.03307 13.45257,7.76683 0,15.53368 -13.45257,-7.76685 z"
       id="path5020"
       inkscape:connector-curvature="0" />
    <path
       style="fill:#666666;fill-opacity:1;fill-rule:evenodd;stroke:none;stroke-width:1px;stroke-linecap:butt;stroke-linejoin:miter;stroke-opacity:1"
       d="m 215.84968,591.7999 6.72627,3.88343 0,15.53366 -6.72627,-3.88341 z"
       id="path5028"
       inkscape:connector-curvature="0" />
    <path
       style="fill:#666666;fill-opacity:1;fill-rule:evenodd;stroke:none;stroke-width:1px;stroke-linecap:butt;stroke-linejoin:miter;stroke-opacity:1"
       d="m 229.30222,568.4994 0,23.3005 13.45257,7.76683 0,-23.3005 z"
       id="path5030"
       inkscape:connector-curvature="0" />
    <path
       style="fill:#666666;fill-opacity:1;fill-rule:evenodd;stroke:none;stroke-width:1px;stroke-linecap:butt;stroke-linejoin:miter;stroke-opacity:1"
       d="m 249.48105,611.21699 20.17882,11.65026 0,15.53368 -20.17882,-11.65024 z"
       id="path5032"
       inkscape:connector-curvature="0" />
    <path
       style="fill:#666666;fill-opacity:1;fill-rule:evenodd;stroke:none;stroke-width:1px;stroke-linecap:butt;stroke-linejoin:miter;stroke-opacity:1"
       d="m 229.30222,646.16778 0,-23.30053 13.45257,7.76683 0,23.3005 z"
       id="path5040"
       inkscape:connector-curvature="0" />
    <path
       style="display:inline;fill:#550000;fill-opacity:1;fill-rule:evenodd;stroke:none;stroke-width:1px;stroke-linecap:butt;stroke-linejoin:miter;stroke-opacity:1"
       d="m 464.72194,518.01495 13.45257,-7.76683 0,0 0,155.33672 -13.45257,7.76685 z"
       id="path4940"
       inkscape:connector-curvature="0" />
    <g
       sodipodi:type="inkscape:box3d"
       id="g4866"
       style="display:inline;opacity:1;fill:#808080;fill-opacity:1;stroke:none;stroke-opacity:1"
       inkscape:perspectiveID="#perspective3352-0"
       inkscape:corner0="-0.057738546 : 0.23335505 : 0 : 1"
       inkscape:corner7="-0.12384236 : 0.21563852 : 0.14702535 : 1">
      <path
         sodipodi:type="inkscape:box3dside"
         id="path4878"
         style="fill:#e9e9ff;fill-rule:evenodd;stroke:none;stroke-width:1px;stroke-linecap:butt;stroke-linejoin:round;stroke-opacity:1"
         inkscape:box3dsidetype="11"
         d="m 538.70555,514.12301 33.63139,19.41709 0,38.83417 -33.63139,-19.41709 z"
         points="572.33694,533.5401 572.33694,572.37427 538.70555,552.95718 538.70555,514.12301 " />
      <path
         sodipodi:type="inkscape:box3dside"
         id="path4868"
         style="fill:#353564;fill-rule:evenodd;stroke:none;stroke-width:1px;stroke-linecap:butt;stroke-linejoin:round;stroke-opacity:1"
         inkscape:box3dsidetype="6"
         d="m 404.17998,591.79138 0,38.83416 134.52557,-77.66836 0,-38.83417 z"
         points="404.17998,630.62554 538.70555,552.95718 538.70555,514.12301 404.17998,591.79138 " />
      <path
         sodipodi:type="inkscape:box3dside"
         id="path4876"
         style="fill:#afafde;fill-rule:evenodd;stroke:none;stroke-width:1px;stroke-linecap:butt;stroke-linejoin:round;stroke-opacity:1"
         inkscape:box3dsidetype="13"
         d="m 404.17998,630.62554 33.63139,19.4171 134.52557,-77.66837 -33.63139,-19.41709 z"
         points="437.81137,650.04264 572.33694,572.37427 538.70555,552.95718 404.17998,630.62554 " />
      <path
         sodipodi:type="inkscape:box3dside"
         id="path4870"
         style="fill:#e6e6e6"
         inkscape:box3dsidetype="5"
         d="m 404.17998,591.79138 33.63139,19.41709 134.52557,-77.66837 -33.63139,-19.41709 z"
         points="437.81137,611.20847 572.33694,533.5401 538.70555,514.12301 404.17998,591.79138 " />
      <path
         sodipodi:type="inkscape:box3dside"
         id="path4874"
         style="fill:#808080;fill-opacity:1"
         inkscape:box3dsidetype="14"
         d="m 437.81137,611.20847 0,38.83417 134.52557,-77.66837 0,-38.83417 z"
         points="437.81137,650.04264 572.33694,572.37427 572.33694,533.5401 437.81137,611.20847 " />
      <path
         sodipodi:type="inkscape:box3dside"
         id="path4872"
         style="fill:#999999"
         inkscape:box3dsidetype="3"
         d="m 404.17998,591.79138 33.63139,19.41709 0,38.83417 -33.63139,-19.4171 z"
         points="437.81137,611.20847 437.81137,650.04264 404.17998,630.62554 404.17998,591.79138 " />
    </g>
  </g>
</svg>
