<?xml version="1.0" encoding="UTF-8" standalone="no"?>
<!-- Created with Inkscape (http://www.inkscape.org/) -->

<svg
   xmlns:dc="http://purl.org/dc/elements/1.1/"
   xmlns:cc="http://creativecommons.org/ns#"
   xmlns:rdf="http://www.w3.org/1999/02/22-rdf-syntax-ns#"
   xmlns:svg="http://www.w3.org/2000/svg"
   xmlns="http://www.w3.org/2000/svg"
   xmlns:sodipodi="http://sodipodi.sourceforge.net/DTD/sodipodi-0.dtd"
   xmlns:inkscape="http://www.inkscape.org/namespaces/inkscape"
   width="16.933332mm"
   height="16.933332mm"
   viewBox="0 0 59.999997 59.999997"
   id="svg4514"
   version="1.1"
   inkscape:version="0.91 r13725"
   sodipodi:docname="Achievement.svg">
  <defs
     id="defs4516" />
  <sodipodi:namedview
     id="base"
     pagecolor="#ffffff"
     bordercolor="#666666"
     borderopacity="1.0"
     inkscape:pageopacity="0.0"
     inkscape:pageshadow="2"
     inkscape:zoom="7.9195959"
     inkscape:cx="27.952369"
     inkscape:cy="27.916674"
     inkscape:document-units="px"
     inkscape:current-layer="layer1"
     showgrid="false"
     fit-margin-top="0"
     fit-margin-left="0"
     fit-margin-right="0"
     fit-margin-bottom="0"
     inkscape:window-width="1280"
     inkscape:window-height="961"
     inkscape:window-x="-8"
     inkscape:window-y="-8"
     inkscape:window-maximized="1" />
  <metadata
     id="metadata4519">
    <rdf:RDF>
      <cc:Work
         rdf:about="">
        <dc:format>image/svg+xml</dc:format>
        <dc:type
           rdf:resource="http://purl.org/dc/dcmitype/StillImage" />
        <dc:title></dc:title>
      </cc:Work>
    </rdf:RDF>
  </metadata>
  <g
     inkscape:label="Layer 1"
     inkscape:groupmode="layer"
     id="layer1"
     transform="translate(-475.71429,-868.07649)">
    <path
       inkscape:connector-curvature="0"
       style="opacity:1;fill:#ffffff;fill-opacity:1;fill-rule:evenodd;stroke:none;stroke-width:1;stroke-linecap:butt;stroke-linejoin:miter;stroke-miterlimit:4;stroke-dasharray:none;stroke-opacity:1"
       d="m 475.71429,868.07649 0,20 5,0 0,40 50,0 0,-40 5,0 0,-20 -60,0 z m 30.24218,9.7461 a 12.148196,12.148196 0 0 1 12.15235,12.13867 12.148196,12.148196 0 0 1 -12.13477,12.1582 12.148196,12.148196 0 0 1 -12.16211,-12.13086 l 0,-0.0176 a 12.148196,12.148196 0 0 1 12.14453,-12.14843 z m 8.92383,22.61523 7.27735,13.82813 -12.14844,4.04882 -4.04883,-14.57617 -4.04883,14.57617 -12.14844,-4.04882 7.27344,-13.81641 a 13.767955,13.767955 0 0 0 8.92383,3.28906 13.767955,13.767955 0 0 0 0.0156,0 13.767955,13.767955 0 0 0 8.9043,-3.30078 z"
       id="path4297" />
    <path
       sodipodi:type="star"
       style="opacity:1;fill:#ffffff;fill-opacity:1;fill-rule:nonzero;stroke:none;stroke-width:0.80987972;stroke-linecap:round;stroke-linejoin:miter;stroke-miterlimit:4;stroke-dasharray:none;stroke-dashoffset:0;stroke-opacity:1"
       id="path4342"
       sodipodi:sides="5"
       sodipodi:cx="505.96039"
       sodipodi:cy="889.9704"
       sodipodi:r1="9.7185564"
       sodipodi:r2="4.5555735"
       sodipodi:arg1="-1.5707963"
       sodipodi:arg2="-0.9424778"
       inkscape:flatsided="false"
       inkscape:rounded="0"
       inkscape:randomized="0"
       d="m 505.96039,880.25184 2.6777,6.03302 6.56519,0.68234 -4.91028,4.41095 1.37981,6.45473 -5.71242,-3.30691 -5.71243,3.30691 1.37982,-6.45473 -4.91029,-4.41095 6.5652,-0.68234 z"
       inkscape:transform-center-y="-0.92804363" />
  </g>
</svg>
