<?xml version="1.0" encoding="UTF-8" standalone="no"?>
<!-- Created with Inkscape (http://www.inkscape.org/) -->

<svg
   xmlns:dc="http://purl.org/dc/elements/1.1/"
   xmlns:cc="http://creativecommons.org/ns#"
   xmlns:rdf="http://www.w3.org/1999/02/22-rdf-syntax-ns#"
   xmlns:svg="http://www.w3.org/2000/svg"
   xmlns="http://www.w3.org/2000/svg"
   xmlns:sodipodi="http://sodipodi.sourceforge.net/DTD/sodipodi-0.dtd"
   xmlns:inkscape="http://www.inkscape.org/namespaces/inkscape"
   width="175.78412mm"
   height="175.78412mm"
   viewBox="0 0 622.85711 622.85711"
   id="svg6258"
   version="1.1"
   inkscape:version="0.91 r13725"
   sodipodi:docname="ChangeBread_Black.svg">
  <defs
     id="defs6260" />
  <sodipodi:namedview
     id="base"
     pagecolor="#ffffff"
     bordercolor="#666666"
     borderopacity="1.0"
     inkscape:pageopacity="0.0"
     inkscape:pageshadow="2"
     inkscape:zoom="0.35"
     inkscape:cx="-115"
     inkscape:cy="378.57143"
     inkscape:document-units="px"
     inkscape:current-layer="layer1"
     showgrid="false"
     fit-margin-top="0"
     fit-margin-left="0"
     fit-margin-right="0"
     fit-margin-bottom="0"
     inkscape:window-width="1600"
     inkscape:window-height="837"
     inkscape:window-x="-8"
     inkscape:window-y="-8"
     inkscape:window-maximized="1" />
  <metadata
     id="metadata6263">
    <rdf:RDF>
      <cc:Work
         rdf:about="">
        <dc:format>image/svg+xml</dc:format>
        <dc:type
           rdf:resource="http://purl.org/dc/dcmitype/StillImage" />
        <dc:title></dc:title>
      </cc:Work>
    </rdf:RDF>
  </metadata>
  <g
     inkscape:label="Layer 1"
     inkscape:groupmode="layer"
     id="layer1"
     transform="translate(-64.28571,-288.07649)">
    <path
       inkscape:connector-curvature="0"
       style="fill:#000000;fill-opacity:1;fill-rule:evenodd;stroke:none;stroke-width:1;stroke-linecap:butt;stroke-linejoin:miter;stroke-miterlimit:4;stroke-dasharray:none;stroke-opacity:1"
       d="m 64.28571,288.07649 0,207.61905 51.90476,0 0,415.23809 519.04762,0 0,-415.23809 51.90476,0 0,-207.61905 -622.85714,0 z m 318.07882,124.40928 a 186.85707,186.85707 0 0 1 32.3594,3.5481 186.85707,186.85707 0 0 1 150.40214,183.24821 l 31.14286,0 -62.28571,103.80952 -62.28572,-103.80952 41.52381,0 A 134.95231,134.95231 0 0 0 378.26893,464.3297 134.95231,134.95231 0 0 0 243.31655,599.28208 a 134.95231,134.95231 0 0 0 134.95238,134.95238 134.95231,134.95231 0 0 0 95.375,-39.57738 l 36.75916,36.75905 a 186.85707,186.85707 0 0 1 -235.94368,23.23548 186.85707,186.85707 0 0 1 -68.8144,-226.86024 186.85707,186.85707 0 0 1 176.71952,-115.3056 z"
       id="path4178-0-4-03-3" />
  </g>
</svg>
