<?xml version="1.0" encoding="UTF-8" standalone="no"?>
<!-- Created with Inkscape (http://www.inkscape.org/) -->

<svg
   xmlns:dc="http://purl.org/dc/elements/1.1/"
   xmlns:cc="http://creativecommons.org/ns#"
   xmlns:rdf="http://www.w3.org/1999/02/22-rdf-syntax-ns#"
   xmlns:svg="http://www.w3.org/2000/svg"
   xmlns="http://www.w3.org/2000/svg"
   xmlns:sodipodi="http://sodipodi.sourceforge.net/DTD/sodipodi-0.dtd"
   xmlns:inkscape="http://www.inkscape.org/namespaces/inkscape"
   width="163.66245mm"
   height="163.66246mm"
   viewBox="0 0 579.9063 579.90636"
   id="svg4614"
   version="1.1"
   inkscape:version="0.91 r13725"
   sodipodi:docname="MakeToast_White.svg">
  <defs
     id="defs4616" />
  <sodipodi:namedview
     id="base"
     pagecolor="#ffffff"
     bordercolor="#666666"
     borderopacity="1.0"
     inkscape:pageopacity="0.0"
     inkscape:pageshadow="2"
     inkscape:zoom="0.35"
     inkscape:cx="-107.90398"
     inkscape:cy="182.81028"
     inkscape:document-units="px"
     inkscape:current-layer="layer1"
     showgrid="false"
     fit-margin-top="0"
     fit-margin-left="0"
     fit-margin-right="0"
     fit-margin-bottom="0"
     inkscape:window-width="1600"
     inkscape:window-height="837"
     inkscape:window-x="-8"
     inkscape:window-y="-8"
     inkscape:window-maximized="1" />
  <metadata
     id="metadata4619">
    <rdf:RDF>
      <cc:Work
         rdf:about="">
        <dc:format>image/svg+xml</dc:format>
        <dc:type
           rdf:resource="http://purl.org/dc/dcmitype/StillImage" />
        <dc:title></dc:title>
      </cc:Work>
    </rdf:RDF>
  </metadata>
  <g
     inkscape:label="Layer 1"
     inkscape:groupmode="layer"
     id="layer1"
     transform="translate(-57.189693,-135.26618)">
    <path
       inkscape:connector-curvature="0"
       style="fill:#ffffff;fill-opacity:1;fill-rule:evenodd;stroke:none;stroke-width:9.66510487;stroke-linecap:butt;stroke-linejoin:miter;stroke-miterlimit:4;stroke-dasharray:none;stroke-opacity:1"
       d="m 57.189693,135.26618 0,193.30211 48.325527,0 0,386.60422 483.25527,0 0,-386.60422 48.32553,0 0,-193.30211 -579.906327,0 z m 147.355067,96.44345 57.99063,0 c -96.65105,96.65106 96.65106,289.95316 0,386.60421 l -57.99063,0 c 96.65105,-96.65105 -96.65105,-289.95315 0,-386.60421 z m 115.98126,0 57.99064,0 c -96.65106,96.65106 96.65105,289.95316 0,386.60421 l -57.99064,0 c 96.65106,-96.65105 -96.65105,-289.95315 0,-386.60421 z m 115.98126,0 57.99064,0 c -96.65105,96.65106 96.65106,289.95316 0,386.60421 l -57.99064,0 c 96.65106,-96.65105 -96.65105,-289.95315 0,-386.60421 z"
       id="path4178-0-4-0" />
  </g>
</svg>
