<?xml version="1.0" encoding="UTF-8" standalone="no"?>
<!-- Created with Inkscape (http://www.inkscape.org/) -->

<svg
   xmlns:dc="http://purl.org/dc/elements/1.1/"
   xmlns:cc="http://creativecommons.org/ns#"
   xmlns:rdf="http://www.w3.org/1999/02/22-rdf-syntax-ns#"
   xmlns:svg="http://www.w3.org/2000/svg"
   xmlns="http://www.w3.org/2000/svg"
   xmlns:sodipodi="http://sodipodi.sourceforge.net/DTD/sodipodi-0.dtd"
   xmlns:inkscape="http://www.inkscape.org/namespaces/inkscape"
   width="183.04128mm"
   height="183.04128mm"
   viewBox="0 0 648.57145 648.57144"
   id="svg5710"
   version="1.1"
   inkscape:version="0.91 r13725"
   sodipodi:docname="Menu_White.svg">
  <defs
     id="defs5712" />
  <sodipodi:namedview
     id="base"
     pagecolor="#ffffff"
     bordercolor="#666666"
     borderopacity="1.0"
     inkscape:pageopacity="0.0"
     inkscape:pageshadow="2"
     inkscape:zoom="0.35"
     inkscape:cx="-77.857143"
     inkscape:cy="372.85715"
     inkscape:document-units="px"
     inkscape:current-layer="layer1"
     showgrid="false"
     fit-margin-top="0"
     fit-margin-left="0"
     fit-margin-right="0"
     fit-margin-bottom="0"
     inkscape:window-width="1600"
     inkscape:window-height="837"
     inkscape:window-x="-8"
     inkscape:window-y="-8"
     inkscape:window-maximized="1" />
  <metadata
     id="metadata5715">
    <rdf:RDF>
      <cc:Work
         rdf:about="">
        <dc:format>image/svg+xml</dc:format>
        <dc:type
           rdf:resource="http://purl.org/dc/dcmitype/StillImage" />
        <dc:title></dc:title>
      </cc:Work>
    </rdf:RDF>
  </metadata>
  <g
     inkscape:label="Layer 1"
     inkscape:groupmode="layer"
     id="layer1"
     transform="translate(-27.142857,-256.64792)">
    <path
       inkscape:connector-curvature="0"
       style="fill:#ffffff;fill-opacity:1;fill-rule:evenodd;stroke:none;stroke-width:0.40000001;stroke-linecap:butt;stroke-linejoin:miter;stroke-miterlimit:4;stroke-dasharray:none;stroke-opacity:1"
       d="m 27.142857,256.64792 0,216.19047 54.047618,0 0,432.38096 540.476195,0 0,-432.38096 54.04762,0 0,-216.19047 -648.571433,0 z m 153.993443,107.86305 54.04762,0 0,108.09524 -54.04762,0 0,-108.09524 z m 108.09524,0 216.19047,0 0,108.09524 -216.19047,0 0,-108.09524 z m -108.09524,162.14286 54.04762,0 0,108.09523 -54.04762,0 0,-108.09523 z m 108.09524,0 216.19047,0 0,108.09523 -216.19047,0 0,-108.09523 z m -108.09524,162.14285 54.04762,0 0,108.09524 -54.04762,0 0,-108.09524 z m 108.09524,0 216.19047,0 0,108.09524 -216.19047,0 0,-108.09524 z"
       id="path4178-0-4-03" />
  </g>
</svg>
